<?xml version="1.0" encoding="UTF-8" standalone="no"?>
<!DOCTYPE svg PUBLIC "-//W3C//DTD SVG 1.1//EN" "http://www.w3.org/Graphics/SVG/1.1/DTD/svg11.dtd">
<svg width="100%" height="100%" viewBox="0 0 989 2052" version="1.1" xmlns="http://www.w3.org/2000/svg" xmlns:xlink="http://www.w3.org/1999/xlink" xml:space="preserve" xmlns:serif="http://www.serif.com/" style="fill-rule:evenodd;clip-rule:evenodd;stroke-linecap:round;stroke-linejoin:round;stroke-miterlimit:1.5;">
    <g transform="matrix(1,0,0,1,-798.657673,-1223.381639)">
        <g transform="matrix(0.716989,0,0,1.071103,378.291571,499.306461)">
            <path d="M1202.064,676.009C1393.355,676.009 1434.072,779.968 1434.072,908.017C1434.072,1036.066 1330.112,1140.025 1202.064,1140.025C1074.015,1140.025 970.056,1036.066 970.056,908.017C970.056,779.968 1010.773,676.009 1202.064,676.009Z"/>
        </g>
        <g transform="matrix(1,0,0,1,0,-70)">
            <path d="M1720.185,2015.333C1793.779,2088.926 1801.173,2706.078 1767.951,2780.415C1660.326,3021.232 1642.039,2486.396 1632.658,2495.965C1595.784,2533.578 1567.154,2679.062 1553.379,2763.947C1535.799,2872.281 1579.543,3261.81 1506.877,3312.508C1399.408,3387.487 1346.948,3306.947 1263.244,3306.491C1146.138,3305.852 1190.732,3345.172 1098.122,3322.726C1005.512,3300.279 1045.292,2844.769 997.147,2772.461C981.942,2749.624 979.852,3121.744 907.186,3063.874C738.584,2929.6 801.042,2381.59 869.044,2268.566C973.287,2095.308 1077.09,2357.314 1171.134,2317.762C1265.811,2277.945 1311.19,2106.638 1437.103,2029.661C1548.251,1961.711 1646.591,1941.739 1720.185,2015.333Z" style="stroke:black;stroke-width:1px;"/>
        </g>
        <g transform="matrix(0.996266,0.086336,-0.086336,0.996266,134.732145,-89.545884)">
            <path d="M1374.888,1654.657C1316.97,1735.114 1269.401,1753.937 1269.401,1753.937C1269.401,1753.937 1241.332,1953.878 1305.058,1876.54C1368.785,1799.201 1409.748,1606.233 1374.888,1654.657Z" style="stroke:black;stroke-width:1px;"/>
        </g>
    </g>
</svg>
